<svg width="62" height="104" viewBox="0 0 62 104" fill="none" xmlns="http://www.w3.org/2000/svg">
<g clip-path="url(#clip0_68_551)">
<path d="M61.2768 76.0482C60.4474 82.299 57.6691 89.5532 54.361 95.0925C53.2667 96.7455 51.7566 98.1279 50.0823 99.2358C41.4128 105.144 29.3579 103.812 20.76 98.3387C16.7791 95.7788 13.7397 92.3683 10.7642 88.7334C5.23074 82.241 1.94779 76.3847 2.9029 67.4658C3.03824 66.2265 3.31085 65.0045 3.74394 63.8967C4.4593 62.0309 5.59616 60.4881 6.12205 58.7673C6.6344 57.1606 6.56674 55.4418 6.68661 53.7733C6.78328 52.1531 7.07136 50.7069 7.04429 49.1157C7.02882 47.9073 6.87415 46.6931 6.66921 45.4673C5.18627 37.3063 3.597 29.1743 2.2958 20.9921C1.89365 18.5908 1.44123 16.1276 0.942405 13.7591C0.627257 12.1911 0.360445 10.7101 0.546053 9.09959C1.19762 2.37901 8.6239 2.04259 13.1694 5.196C14.198 5.92684 15.0274 6.84715 15.7176 7.8796C19.6637 13.7727 20.5667 23.84 22.8655 31.0053C23.7858 34.3946 25.0812 35.3033 26.044 31.3011C28.2559 22.9622 28.8978 5.36615 37.1458 1.19962C41.5288 -0.6236 45.8829 1.58824 46.8922 6.27679C47.4412 9.11699 47.3639 12.2414 47.1068 15.1319C46.5306 20.4101 44.4328 25.8179 43.093 30.9859C42.7856 32.1634 42.5671 33.3525 42.3331 34.5473C42.1263 35.8852 41.5172 37.3952 41.8749 38.7293C42.5168 40.5873 45.0573 40.4423 46.49 41.4535C49.5525 43.2593 50.6314 47.2634 52.4585 49.9548C53.5006 51.5228 54.9062 52.7718 56.3099 54.0188C57.5647 55.1769 59.1404 56.0644 59.879 57.6247C60.5247 59.0457 60.4358 60.722 60.6195 62.2571C60.8089 64.2254 61.184 66.0273 61.3194 67.9008C61.4953 70.5631 61.5185 73.3724 61.2788 76.0134L61.2749 76.0482H61.2768Z" fill="#FAD91F"/>
<path d="M61.2768 76.0482C60.4474 82.299 57.6691 89.5532 54.361 95.0925C53.2667 96.7455 51.7566 98.1279 50.0823 99.2358C41.4128 105.144 29.3579 103.812 20.76 98.3387C16.7791 95.7788 13.7397 92.3683 10.7642 88.7334C5.23074 82.241 1.94779 76.3847 2.9029 67.4658C3.03824 66.2265 3.31085 65.0045 3.74394 63.8967C4.4593 62.0309 5.59616 60.4881 6.12205 58.7673C6.6344 57.1606 6.56674 55.4418 6.68661 53.7733C6.78328 52.1531 7.07136 50.7069 7.04429 49.1157C7.02882 47.9073 6.87415 46.6931 6.66921 45.4673C5.18627 37.3063 3.597 29.1743 2.2958 20.9921C1.89365 18.5908 1.44123 16.1276 0.942405 13.7591C0.627257 12.1911 0.360445 10.7101 0.546053 9.09959C1.19762 2.37901 8.6239 2.04259 13.1694 5.196C14.198 5.92684 15.0274 6.84715 15.7176 7.8796C19.6637 13.7727 20.5667 23.84 22.8655 31.0053C23.7858 34.3946 25.0812 35.3033 26.044 31.3011C28.2559 22.9622 28.8978 5.36615 37.1458 1.19962C41.5288 -0.6236 45.8829 1.58824 46.8922 6.27679C47.4412 9.11699 47.3639 12.2414 47.1068 15.1319C46.5306 20.4101 44.4328 25.8179 43.093 30.9859C42.7856 32.1634 42.5671 33.3525 42.3331 34.5473C42.1263 35.8852 41.5172 37.3952 41.8749 38.7293C42.5168 40.5873 45.0573 40.4423 46.49 41.4535C49.5525 43.2593 50.6314 47.2634 52.4585 49.9548C53.5006 51.5228 54.9062 52.7718 56.3099 54.0188C57.5647 55.1769 59.1404 56.0644 59.879 57.6247C60.5247 59.0457 60.4358 60.722 60.6195 62.2571C60.8089 64.2254 61.184 66.0273 61.3194 67.9008C61.4953 70.5631 61.5185 73.3724 61.2788 76.0134L61.2749 76.0482H61.2768ZM43.0485 4.02435C40.0826 0.783932 36.3685 3.87934 34.6014 6.72341C32.4862 9.97736 31.5214 13.8094 30.6843 17.5776C30.1622 20.8529 30.2724 23.8845 29.4353 27.1964C28.747 30.2938 27.9697 33.4665 26.7072 36.3609C25.437 39.4041 24.1416 39.9435 22.5755 36.8171C18.2253 28.5692 19.1417 18.67 14.6194 10.5226C12.0383 6.16658 7.40004 2.79083 3.25091 7.50838C1.88205 9.20013 2.47174 11.4545 2.78496 13.4904C3.72847 17.9817 4.84212 22.2952 5.54395 26.7614C5.8359 28.4686 6.07178 30.0482 6.12591 31.6742C6.18198 33.132 6.15685 34.5976 6.45266 36.0341C7.76352 41.2814 9.79362 46.6293 9.16526 52.1241C8.80564 54.274 8.85204 56.5748 8.24495 58.6339C7.68039 60.3005 6.65567 61.7757 6.09111 63.4481C4.28529 68.6142 4.4187 74.3526 6.6402 79.3776C7.63012 81.4889 9.40887 83.053 10.7313 84.9304C17.1928 95.2259 27.8731 102.958 40.4771 100.564C43.3463 99.9879 46.6543 99.3035 49.0499 97.7065C50.7764 96.3859 52.3831 94.6033 53.5818 92.7666C54.2972 91.6046 54.6123 90.4136 54.9874 89.0756C55.9928 85.3673 57.8605 81.9819 58.9761 78.3103C60.6233 73.4072 59.8094 69.9464 59.2371 65.0509C58.862 60.5055 59.2255 58.7344 55.2697 55.7048C53.431 54.1774 51.2984 52.8027 50.1016 50.6895C48.3384 47.1977 47.5573 44.0172 43.3637 42.6329C42.3215 42.2578 41.0223 42.078 40.1097 41.4767C37.3797 39.6419 40.3746 34.323 41.0165 31.8347C41.9001 29.2149 41.9542 26.3728 42.5826 23.6447C43.3134 20.3038 44.4019 17.6569 44.7209 14.0917C44.8137 13.096 44.8659 12.0713 44.9065 11.0717C45.0573 8.38229 45.0593 6.12212 43.0775 4.05142L43.0504 4.02435H43.0485Z" fill="#104179"/>
<path d="M18.239 71.8274C18.908 72.6336 17.4328 74.2615 17.0887 75.0156C16.613 75.7909 16.8972 76.1679 17.9142 75.6362C19.14 75.1432 20.2169 72.9913 21.6283 73.4862C22.3282 73.7221 23.1132 74.5148 24.0934 74.9073C25.5029 75.5144 27.2817 75.2534 28.4437 76.3902C29.8628 77.906 30.5085 79.7351 33.0587 79.65C34.3464 79.6771 35.7597 79.0371 36.9836 79.6268C38.5825 80.5568 38.8474 83.2616 38.6637 85.1138C38.4917 86.9274 37.5675 88.7816 37.3587 90.5506C37.1963 92.0626 37.9948 91.7861 38.5497 90.8755C40.3129 87.7472 41.1288 83.7469 39.9881 80.317C39.5782 79.0661 38.7314 77.6528 39.468 76.3883C40.1138 75.2998 41.3647 74.6154 42.343 73.8285C43.9497 72.6007 45.5641 71.1101 47.1824 69.9829C48.9418 68.6662 51.1343 68.1191 52.9962 66.9957C53.8759 66.4466 55.1945 65.2479 55.1423 64.287C54.8465 63.6509 53.0078 65.2692 52.391 65.6211C50.997 66.6091 49.3459 67.1311 47.8823 67.9934C46.5328 68.7861 45.4056 69.892 44.1353 70.9206C42.2889 72.4074 40.2337 73.7492 38.4143 75.2128C36.972 76.3264 35.6012 78.0472 33.6755 78.1806C31.9741 78.2657 30.5279 76.5507 30.8218 74.8841C30.9977 73.6506 31.9857 72.5253 32.8306 71.5064C33.8476 70.3174 34.8008 69.0916 35.6901 67.8C37.0087 65.884 38.2519 63.968 39.4062 62.0017C40.3245 60.4936 41.1424 58.6047 42.3314 57.4156C43.4992 56.242 45.1465 55.7703 46.7396 55.4841C48.0176 55.2483 49.1023 54.8326 50.1521 54.7591C52.3272 54.442 55.3724 57.6148 56.3043 59.3548C57.6132 61.8432 56.9133 64.724 57.1666 67.4134C57.4682 71.3343 58.3015 75.1703 57.0912 78.9946C56.5788 80.8217 55.5773 82.5424 54.9509 84.3057C54.5178 85.5527 54.3032 86.8133 53.8624 88.0565C52.7913 91.1384 50.8675 93.6731 48.5339 95.8985C47.4202 96.9909 46.2196 97.886 44.7521 98.3037C39.8837 99.7943 34.6306 99.7073 29.7062 98.5067C21.5104 96.3973 16.4294 88.9962 11.4682 82.7087C6.91885 77.4014 4.87715 71.52 7.49501 64.7317C9.54444 59.5753 10.2985 57.7617 15.9789 56.4779C19.9733 55.7161 20.5475 53.7305 23.6159 52.584C28.4649 51.1803 30.2166 56.8762 28.7182 60.6618C27.1289 64.3373 23.1712 67.1233 19.8573 69.1302C19.2116 69.4821 18.5716 69.7625 17.8736 70.0293C16.9301 70.3986 15.8803 70.7118 15.076 71.2531C14.6293 71.547 14.4824 71.926 15.1649 71.9298C15.9924 72.0168 17.3806 71.3305 18.2236 71.8196L18.2371 71.8312L18.239 71.8274Z" fill="#104179"/>
<path d="M41.7649 4.86432C42.8109 5.94317 42.925 7.70452 43.0507 9.17006C43.4373 17.6307 40.9046 26.4297 38.5729 34.5269C38.0218 36.3714 37.1692 38.2217 37.1731 40.1841C37.1808 41.2282 37.5733 42.2258 37.6042 43.0282C37.7569 44.9751 35.2203 45.5726 33.8978 46.5045C32.9485 47.0729 32.0533 47.7341 31.278 48.5249C30.4428 49.3543 29.7448 50.4081 28.9019 50.8972C28.0396 51.4366 27.0052 51.3593 26.0249 51.2665C23.2717 50.8257 21.0135 52.7668 18.908 54.2556C17.3497 55.3731 15.888 56.1716 14.1344 56.7246C12.5509 57.2311 11.1066 57.1035 10.9694 55.0328C10.7838 51.4366 11.3251 47.7399 10.7934 44.1592C10.0452 38.4556 7.69221 32.3808 6.89757 26.5245C6.65589 24.8173 6.51669 23.0675 6.34848 21.3526C6.18414 19.6279 5.96759 17.9961 5.55577 16.3353C4.93321 13.4275 3.12353 9.21839 5.82452 7.04909C7.68834 5.72276 10.3294 7.07423 11.6074 8.69057C12.4446 9.68821 13.0072 10.8405 13.5369 12.0741C15.8358 17.6907 16.9765 24.127 18.2294 30.111C18.4324 31.128 18.6199 32.1662 18.9196 33.1542C19.4281 34.7705 20.128 36.2515 20.8472 37.8215C21.5703 39.1381 21.8004 41.582 23.438 41.6941C25.8529 41.4698 27.7998 38.1907 28.6815 36.122C31.8832 27.9571 32.0205 18.4795 34.7582 9.97823C35.4678 7.9056 36.4519 5.49075 38.5168 4.49697C39.6459 3.99428 40.9142 3.99621 41.7475 4.84112L41.7707 4.86432H41.7649Z" fill="#104179"/>
<path d="M49.1508 53.2744C48.8898 53.6997 48.2692 53.8776 47.7414 54.0226C47.2174 54.1599 46.6683 54.2585 46.1327 54.3977C42.0165 55.4534 40.3441 57.0716 38.4261 60.7103C36.7015 63.8096 34.8531 66.6073 32.736 69.3972C31.3788 71.1586 30.008 73.0263 27.8986 73.8963C26.7521 74.3777 25.2885 74.5266 24.2348 73.8325C22.2279 72.483 23.0283 69.6988 24.3527 68.1018C26.8662 65.0335 30.0389 63.4616 30.5029 59.1713C30.9882 55.8149 29.0877 52.8046 31.3595 49.7691C33.1575 47.275 36.0944 45.8732 39.0545 45.1869C40.1662 44.8911 41.2373 44.5392 42.2814 44.4232C45.0172 43.9824 46.823 46.5905 47.7336 48.872C48.0333 49.5874 48.3388 50.2911 48.6655 50.9659C49.0387 51.7373 49.4911 52.7988 49.1624 53.257L49.1528 53.2744H49.1508Z" fill="#104179"/>
</g>
<defs>
<clipPath id="clip0_68_551">
<rect width="60.9725" height="102.533" fill="white" transform="translate(0.484375 0.563477)"/>
</clipPath>
</defs>
</svg>
